<?xml version="1.0" encoding="UTF-8"?>
<svg width="64" height="64" viewBox="0 0 64 64" xmlns="http://www.w3.org/2000/svg">
  <style>
    .pixelated {
      shape-rendering: crispEdges;
      image-rendering: pixelated;
    }
  </style>
  <!-- Background -->
  <rect class="pixelated" width="64" height="64" fill="#FFECB3"/>
  
  <!-- Body (Artist Smock) -->
  <rect class="pixelated" x="22" y="32" width="20" height="20" fill="#9C27B0"/>
  
  <!-- Paint Stains -->
  <rect class="pixelated" x="26" y="36" width="4" height="4" fill="#F44336"/>
  <rect class="pixelated" x="34" y="42" width="4" height="4" fill="#2196F3"/>
  <rect class="pixelated" x="28" y="48" width="4" height="4" fill="#4CAF50"/>
  
  <!-- Head -->
  <rect class="pixelated" x="22" y="12" width="20" height="20" fill="#FFCC80"/>
  
  <!-- Beret -->
  <rect class="pixelated" x="18" y="8" width="28" height="6" fill="#E91E63"/>
  <rect class="pixelated" x="18" y="6" width="6" height="2" fill="#E91E63"/>
  
  <!-- Hair (Artistic style) -->
  <rect class="pixelated" x="22" y="14" width="20" height="4" fill="#A1887F"/>
  <rect class="pixelated" x="18" y="16" width="4" height="6" fill="#A1887F"/>
  
  <!-- Face -->
  <rect class="pixelated" x="26" y="18" width="4" height="4" fill="#212121"/>
  <rect class="pixelated" x="34" y="18" width="4" height="4" fill="#212121"/>
  <rect class="pixelated" x="30" y="24" width="4" height="2" fill="#212121"/>
  
  <!-- Paintbrush -->
  <rect class="pixelated" x="44" y="24" width="12" height="2" fill="#795548"/>
  <rect class="pixelated" x="56" y="22" width="4" height="6" fill="#FFEB3B"/>
  
  <!-- Palette -->
  <path class="pixelated" d="M10,24 a10,6 0 1,0 20,0 a10,6 0 1,0 -20,0 z" fill="#795548"/>
  <rect class="pixelated" x="14" y="22" width="2" height="2" fill="#F44336"/>
  <rect class="pixelated" x="18" y="20" width="2" height="2" fill="#2196F3"/>
  <rect class="pixelated" x="22" y="22" width="2" height="2" fill="#4CAF50"/>
  <rect class="pixelated" x="24" y="26" width="2" height="2" fill="#9C27B0"/>
  
  <!-- Legs -->
  <rect class="pixelated" x="26" y="52" width="4" height="8" fill="#7B1FA2"/>
  <rect class="pixelated" x="34" y="52" width="4" height="8" fill="#7B1FA2"/>
  
  <!-- Arms -->
  <rect class="pixelated" x="14" y="32" width="8" height="4" fill="#FFCC80"/>
  <rect class="pixelated" x="42" y="32" width="8" height="4" fill="#FFCC80"/>
</svg>